<svg width="90" height="90" viewBox="0 0 90 90" fill="none" xmlns="http://www.w3.org/2000/svg">
<path d="M45 85C22.9086 85 5 67.0914 5 45C5 22.9086 22.9086 5.00001 45 5.00001C67.0914 5.00001 85 22.9086 85 45C85 67.0914 67.0914 85 45 85Z" fill="#FDFDFD"/>
<path d="M79.9332 25.5C73.0909 13.2688 60.0111 5.00001 45 5.00001C29.9889 5.00001 16.9091 13.2688 10.0669 25.5L79.9332 25.5Z" fill="#338AF3"/>
<path d="M79.9332 25.5C73.0909 13.2688 60.0111 5.00001 45 5.00001C29.9889 5.00001 16.9091 13.2688 10.0669 25.5L79.9332 25.5Z" fill="#338AF3"/>
<path d="M10.0668 65C16.9091 77.2312 29.9889 85.5 45 85.5C60.0111 85.5 73.0909 77.2312 79.9331 65L10.0668 65Z" fill="#338AF3"/>
<path d="M10.0668 65C16.9091 77.2312 29.9889 85.5 45 85.5C60.0111 85.5 73.0909 77.2312 79.9331 65L10.0668 65Z" fill="#338AF3"/>
<path d="M44.5 36.5L40.5 32.5L39.5 38L33.5 37.5L36 42.5L31 45L36 47.5L34 52.5L39.5 52L40.5 58L44.5 53.5L48.5 58L49.5 52L55 52.5L53 47.5L58 45L52.5 42.5L55 37.5L49.5 38L48.5 32.5L44.5 36.5Z" fill="#FFDA44"/>
</svg>
